<svg xmlns="http://www.w3.org/2000/svg" width="1366" height="106" viewBox="0 0 1366 106">
  <defs>
    <style>
      .cls-1 {
        fill-rule: evenodd;
        fill: currentColor;
      }
    </style>
  </defs>
  <path id="ARIANA_ROSEMAN" data-name="ARIANA ROSEMAN" class="cls-1" d="M98.689,84.331L65.132,1.811h-18L15.1,83.873C8.237,101.262,2.135,103.245.763,103.4H34.93c-1.373-.152-6.254-1.372-6.254-7.931A21.806,21.806,0,0,1,30.2,88.754L33.4,79.3H72.3c2.288,6.406,5.491,14.033,5.491,16.931,0,5.8-4.423,7.017-5.644,7.169h41.031C111.807,103.092,105.1,100.8,98.689,84.331ZM52.624,28.5L67.114,66.027H38.438ZM195.693,91.957l-13.576-23.49c-2.288-4.118-5.033-7.322-7.626-8.847,15.863-2.135,24.862-14.185,24.862-28.066,0-15.1-12.05-29.744-36-29.744H118.664c1.22,0.305,9.3,2.288,9.3,17.694V86.466c0,15.406-7.016,16.779-8.084,16.931h36.76c-1.22-.152-7.779-1.983-7.779-16.931V63.434H151c3.966,0,6.407,1.83,10.068,8.694L178,103.4h30.964C207.438,103.245,201.489,102.025,195.693,91.957ZM177.541,32.164c0,9-5.186,17.541-18.151,17.541H148.712V15.691h10.525C171.44,15.691,177.541,23.623,177.541,32.164Zm68.481,55.522v-69.4c0-14.8,7.169-16.321,7.932-16.473H216.431c1.068,0.305,7.932,2.135,7.932,16.473v69.4c0,14.186-6.864,15.559-7.932,15.711H253.8C252.581,103.245,246.022,101.414,246.022,87.686Zm111.8-3.356L324.269,1.811h-18L274.238,83.873c-6.864,17.389-12.965,19.372-14.338,19.524h34.167c-1.372-.152-6.254-1.372-6.254-7.931a21.8,21.8,0,0,1,1.526-6.711l3.2-9.457h38.9c2.288,6.406,5.491,14.033,5.491,16.931,0,5.8-4.423,7.017-5.644,7.169h41.032C370.944,103.092,364.232,100.8,357.826,84.331ZM311.761,28.5l14.491,37.523H297.576Zm142-9.915V61.756L405.867,1.811H373.53c1.068,0.458,13.88,6.254,13.88,18V86.771c0,15.1-6.711,16.474-7.779,16.626h33.863c-1.526-.152-9.152-1.983-9.152-16.626V35.063l34.014,41.489C450.864,91.8,454.677,103.4,454.677,103.4h15.864V18.589c0-15.1,6.864-16.626,7.931-16.779h-33.1C446.746,2.116,453.762,3.946,453.762,18.589ZM582.036,84.331L548.478,1.811h-18L498.448,83.873c-6.864,17.389-12.966,19.372-14.339,19.524h34.168c-1.373-.152-6.254-1.372-6.254-7.931a21.824,21.824,0,0,1,1.525-6.711l3.2-9.457h38.9c2.288,6.406,5.492,14.033,5.492,16.931,0,5.8-4.424,7.017-5.644,7.169h41.031C595.153,103.092,588.442,100.8,582.036,84.331ZM535.971,28.5l14.49,37.523H521.785ZM711.527,91.957l-13.576-23.49c-2.288-4.118-5.033-7.322-7.626-8.847,15.863-2.135,24.863-14.185,24.863-28.066,0-15.1-12.05-29.744-36-29.744H634.5c1.22,0.305,9.3,2.288,9.3,17.694V86.466c0,15.406-7.016,16.779-8.084,16.931h36.76c-1.22-.152-7.779-1.983-7.779-16.931V63.434h2.136c3.966,0,6.406,1.83,10.067,8.694L693.833,103.4H724.8C723.272,103.245,717.323,102.025,711.527,91.957ZM693.375,32.164c0,9-5.186,17.541-18.151,17.541H664.547V15.691h10.525C687.274,15.691,693.375,23.623,693.375,32.164ZM835.683,51.079c0-28.829-18.609-51.556-49.268-51.556-31.575,0-53.234,24.1-53.234,54.607,0,28.676,18.914,51.556,49.725,51.556C815.091,105.685,835.683,80.823,835.683,51.079ZM813.565,55.2c0,21.66-11.592,34.777-27.15,34.777-19.372,0-30.965-16.168-30.965-40.574,0-22.117,11.9-34.472,27.151-34.472C802.583,14.928,813.565,32.47,813.565,55.2ZM917.433,75.179c0-18.609-14.948-26.236-28.524-32.337-10.524-4.881-19.676-9-19.676-17.236,0-6.254,4.881-11.135,15.1-11.135,12.05,0,22.422,8.847,26.388,16.321V6.539c-5.491-3.813-15.254-6.864-25.016-6.864-20.134,0-36.455,10.372-36.455,30.354,0,14.185,10.067,21.507,20.592,27,12.813,6.711,26.693,11.135,26.693,21.965,0,7.322-7.779,11.593-17.083,11.593-12.051,0-23.185-5.186-30.66-21.355V98.059c7.322,4.576,18.762,7.626,30.049,7.626C900.807,105.685,917.433,95.008,917.433,75.179Zm86.787-.153c-5.644,10.372-10.678,14.338-23.8,14.338H959.68V59.01h17.083c10.068,0,11.44,3.813,11.9,5.034v-24.1c-0.3.915-1.983,5.186-12.2,5.186H959.68V15.691H978.9c12.813,0,16.473,6.406,18.609,13.27V1.811h-69.1c1.526,0.305,9.458,2.288,9.458,17.084V85.246c0,16.321-7.169,18-8.237,18.151h69.707Zm124.16,11.135V18.589c0-15.1,7.16-16.626,8.23-16.779h-33.4l-26.7,61.471L1049.52,1.811h-37.07c1.53,0.305,9.76,1.983,9.76,16.321V85.246c0,16.321-8.08,18-9.3,18.151h34.78c-1.68-.152-9.61-2.288-9.61-18.151V28.351l35.23,77.487L1107.63,28.2V86.161c0,15.711-6.25,17.084-7.32,17.236h36.3C1135.24,103.245,1128.38,101.262,1128.38,86.161Zm112.1-1.83-33.56-82.52h-18l-32.03,82.063c-6.86,17.389-12.96,19.372-14.34,19.524h34.17c-1.37-.152-6.25-1.372-6.25-7.931a21.69,21.69,0,0,1,1.52-6.711l3.21-9.457h38.89c2.29,6.406,5.49,14.033,5.49,16.931,0,5.8-4.42,7.017-5.64,7.169h41.03C1253.6,103.092,1246.89,100.8,1240.48,84.331ZM1194.41,28.5l14.49,37.523h-28.67Zm142.01-9.915V61.756l-47.9-59.945h-32.34c1.07,0.458,13.88,6.254,13.88,18V86.771c0,15.1-6.71,16.474-7.78,16.626h33.87c-1.53-.152-9.16-1.983-9.16-16.626V35.063l34.02,41.489c12.51,15.253,16.32,26.846,16.32,26.846h15.86V18.589c0-15.1,6.87-16.626,7.94-16.779h-33.1C1329.4,2.116,1336.42,3.946,1336.42,18.589Z"/>
</svg>

